<svg xmlns="http://www.w3.org/2000/svg" width="28" height="21" viewBox="0 0 28 21" fill="none">
<path d="M26.4488 6.03121H23.3091L22.4364 3.84963C21.5397 1.60668 19.3995 0.157715 16.9835 0.157715H10.3234C7.90792 0.157715 5.76724 1.60668 4.86996 3.84963L3.99732 6.03121H0.858152C0.448581 6.03121 0.148089 6.41613 0.247728 6.81312L0.56238 8.07172C0.632128 8.35176 0.883849 8.54842 1.1728 8.54842H2.22531C1.52102 9.16356 1.0674 10.0577 1.0674 11.0656V13.5828C1.0674 14.4282 1.39044 15.1912 1.90647 15.7817V18.6173C1.90647 19.5439 2.65796 20.2954 3.58461 20.2954H5.26275C6.1894 20.2954 6.94089 19.5439 6.94089 18.6173V16.9391H20.366V18.6173C20.366 19.5439 21.1175 20.2954 22.0442 20.2954H23.7223C24.6489 20.2954 25.4004 19.5439 25.4004 18.6173V15.7817C25.9165 15.1918 26.2395 14.4287 26.2395 13.5828V11.0656C26.2395 10.0577 25.7859 9.16356 25.0821 8.54842H26.1346C26.4236 8.54842 26.6753 8.35176 26.7451 8.07172L27.0597 6.81312C27.1588 6.41613 26.8583 6.03121 26.4488 6.03121ZM7.98606 5.09617C8.36836 4.14068 9.29396 3.514 10.3234 3.514H16.9835C18.013 3.514 18.9386 4.14068 19.3209 5.09617L20.366 7.70935H6.94089L7.98606 5.09617ZM5.26275 13.5724C4.25586 13.5724 3.58461 12.9032 3.58461 11.8995C3.58461 10.8957 4.25586 10.2266 5.26275 10.2266C6.26963 10.2266 7.77996 11.7322 7.77996 12.7359C7.77996 13.7396 6.26963 13.5724 5.26275 13.5724ZM22.0442 13.5724C21.0373 13.5724 19.5269 13.7396 19.5269 12.7359C19.5269 11.7322 21.0373 10.2266 22.0442 10.2266C23.051 10.2266 23.7223 10.8957 23.7223 11.8995C23.7223 12.9032 23.051 13.5724 22.0442 13.5724Z" fill="#282828"/>
</svg>