<svg xmlns="http://www.w3.org/2000/svg" width="25" height="25" viewBox="0 0 25 25" fill="none">
                    <path d="M23.6123 15.9688L18.8311 13.9531C18.5967 13.8594 18.3154 13.7656 17.9873 13.7656C17.3311 13.7656 16.7217 14.0938 16.3467 14.5625L14.7998 16.4375C12.3154 15.0781 10.3467 13.1094 8.9873 10.625L10.8623 9.07812C11.3311 8.70312 11.6592 8.09375 11.6592 7.4375C11.6592 7.10938 11.5654 6.82812 11.4717 6.59375L9.45605 1.8125C9.12793 1.0625 8.33105 0.5 7.44043 0.5C7.2998 0.5 7.15918 0.546875 6.97168 0.59375L2.56543 1.57812C1.62793 1.8125 0.924805 2.65625 0.924805 3.6875C0.924805 15.2188 10.2529 24.5469 21.7373 24.5C22.7686 24.5 23.6123 23.7969 23.8467 22.8594L24.8311 18.4531C24.8779 18.2656 24.9248 18.125 24.9248 17.9844C24.9248 17.0938 24.3623 16.2969 23.6123 15.9688ZM21.6436 22.2969C11.4717 22.25 3.22168 13.9531 3.1748 3.78125L7.39355 2.79688L9.3623 7.39062L6.1748 10.0156C8.37793 14.6562 10.7686 17.0469 15.4092 19.25L18.0342 16.0625L22.6279 18.0312L21.6436 22.2969Z" fill="white" style="&#10;"/>
                </svg>