<svg width="25" height="24" viewBox="0 0 25 24" fill="none" xmlns="http://www.w3.org/2000/svg">
<path d="M23.1875 15.4688L18.4062 13.4531C18.1719 13.3594 17.8906 13.2656 17.5625 13.2656C16.9062 13.2656 16.2969 13.5938 15.9219 14.0625L14.375 15.9375C11.8906 14.5781 9.92188 12.6094 8.5625 10.125L10.4375 8.57812C10.9062 8.20312 11.2344 7.59375 11.2344 6.9375C11.2344 6.60938 11.1406 6.32812 11.0469 6.09375L9.03125 1.3125C8.70312 0.5625 7.90625 0 7.01562 0C6.875 0 6.73438 0.046875 6.54688 0.09375L2.14062 1.07812C1.20312 1.3125 0.5 2.15625 0.5 3.1875C0.5 14.7188 9.82812 24.0469 21.3125 24C22.3438 24 23.1875 23.2969 23.4219 22.3594L24.4062 17.9531C24.4531 17.7656 24.5 17.625 24.5 17.4844C24.5 16.5938 23.9375 15.7969 23.1875 15.4688ZM21.2188 21.7969C11.0469 21.75 2.79688 13.4531 2.75 3.28125L6.96875 2.29688L8.9375 6.89062L5.75 9.51562C7.95312 14.1562 10.3438 16.5469 14.9844 18.75L17.6094 15.5625L22.2031 17.5312L21.2188 21.7969Z" fill="white"/>
</svg>
