<svg xmlns="http://www.w3.org/2000/svg" width="17" height="17" viewBox="0 0 17 17" fill="none">
<path d="M8.6792 0.828979C4.27985 0.828979 0.712891 4.39593 0.712891 8.79529C0.712891 13.1946 4.27985 16.7616 8.6792 16.7616C13.0786 16.7616 16.6455 13.1946 16.6455 8.79529C16.6455 4.39593 13.0786 0.828979 8.6792 0.828979ZM8.6792 15.0497C5.2293 15.0497 2.42483 12.2436 2.42483 8.79529C2.42483 5.34701 5.2293 2.54092 8.6792 2.54092C12.1275 2.54092 14.9352 5.34701 14.9352 8.79529C14.9352 12.2436 12.1275 15.0497 8.6792 15.0497Z" fill="black"/>
<path d="M8.67932 3.25464C5.61798 3.25464 3.13867 5.73558 3.13867 8.79529C3.13867 11.855 5.61961 14.3359 8.67932 14.3359C11.7407 14.3359 14.22 11.855 14.22 8.79529C14.22 5.73558 11.7407 3.25464 8.67932 3.25464ZM12.7178 10.5137C12.7129 10.5105 12.708 10.504 12.7047 10.5007L10.6969 9.17409C10.7197 9.05054 10.7359 8.92373 10.7359 8.79366C10.7359 8.6636 10.7213 8.53679 10.6969 8.41323L12.7047 7.08822C12.7096 7.08497 12.7129 7.07847 12.7178 7.07522C12.9421 7.60359 13.0689 8.184 13.0689 8.79529C13.0689 9.40495 12.9421 9.98536 12.7178 10.5137ZM12.1569 6.12739C12.1552 6.12739 12.152 6.12901 12.1487 6.12901L9.99458 7.22967C9.81249 7.07522 9.60439 6.95166 9.37515 6.86874L9.2516 4.45609C9.2516 4.45284 9.24834 4.44796 9.24834 4.44471C10.4303 4.60078 11.4643 5.22508 12.1569 6.12739ZM8.6777 9.77238C8.13794 9.77238 7.7006 9.33505 7.7006 8.79529C7.7006 8.25553 8.13794 7.8182 8.6777 7.8182C9.21745 7.8182 9.65316 8.25553 9.65316 8.79529C9.65479 9.33505 9.21745 9.77238 8.6777 9.77238ZM8.14607 4.44146C8.14607 4.44633 8.14282 4.45284 8.14119 4.45771L7.99812 6.86549C7.75425 6.95166 7.5364 7.08009 7.34456 7.24267L5.18715 6.16315C5.1839 6.16153 5.17902 6.16153 5.17577 6.1599C5.87648 5.23158 6.93486 4.58778 8.14607 4.44146ZM4.62463 7.11586C4.62788 7.11749 4.62951 7.12236 4.63276 7.12399L6.65848 8.43599C6.63897 8.55305 6.62271 8.67173 6.62271 8.79529C6.62271 8.91885 6.63897 9.03916 6.66011 9.15621L4.63439 10.4682C4.63114 10.4698 4.62951 10.4747 4.62626 10.4763C4.41003 9.95772 4.28972 9.39032 4.28972 8.79529C4.28972 8.20025 4.41003 7.63448 4.62463 7.11586ZM5.1774 11.4307C5.18065 11.429 5.18553 11.429 5.18878 11.4274L7.34618 10.3495C7.53803 10.5137 7.75588 10.6422 7.99975 10.7267L8.14281 13.1345C8.14281 13.1394 8.14607 13.1459 8.14607 13.1507C6.93486 13.0028 5.87811 12.3606 5.1774 11.4307ZM9.24997 13.1442C9.24997 13.141 9.25322 13.1377 9.25322 13.1345L9.37841 10.7218C9.60601 10.6373 9.81411 10.5154 9.99783 10.3609L12.1504 11.4616C12.152 11.4616 12.1552 11.4632 12.1569 11.4632C11.4643 12.3655 10.4303 12.9898 9.24997 13.1442Z" fill="black"/>
</svg>